<svg xmlns="http://www.w3.org/2000/svg" viewBox="0 0 108 108">
    <defs>
      <linearGradient id="iconV_a_nb" gradientUnits="userSpaceOnUse" x1="72.927" y1="29.041" x2="58.927" y2="75.843">
        <stop offset="0" stop-color="#22222"/>
        <stop offset="1" stop-color="#33333"/>
      </linearGradient>
      <linearGradient id="iconV_b_nb" gradientUnits="userSpaceOnUse" x1="51.156" y1="68.307" x2="61.87" y2="64.316">
        <stop offset="0" stop-opacity=".6"/>
        <stop offset="1" stop-opacity="0"/>
      </linearGradient>
      <linearGradient id="iconV_c_nb" gradientUnits="userSpaceOnUse" x1="27.319" y1="29.321" x2="61.931" y2="86.207">
        <stop offset="0" stop-color="#22222"/>
        <stop offset=".241" stop-color="#333333"/>
        <stop offset=".608" stop-color="#444444"/>
        <stop offset=".87" stop-color="#555555"/>
        <stop offset="1" stop-color="#666666"/>
      </linearGradient>
      <linearGradient id="iconV_d_nb" gradientUnits="userSpaceOnUse" x1="21.161" y1="14.045" x2="85.5" y2="93.363">
        <stop offset="0" stop-color="#22222"/>
        <stop offset="1" stop-color="#333333"/>
      </linearGradient>
    </defs>
    <path fill="url(#iconV_a_nb)" d="M66.3 29.3 54 65.5h-.2l.2.6c1 2.9 5.8 15.7 9.8 12.7L81 29.3H66.3z"/>
    <path fill="url(#iconV_b_nb)" d="m63.2 59.5-.2-.6-3.3-10L54 65.5h-.2l-1.4 4.7 3.4 9.8h7.6l3.9-11.3c-2-3.3-3.6-7.7-4.1-9.2z"/>
    <path fill="url(#iconV_c_nb)" d="m54.1 66.1-.2-.6-12-36.1h-15l18.7 53.7c.9 2 2.8 3.4 5.1 3.5h10.4l2.7-7.8c-3.9 2.9-8.7-9.8-9.7-12.7z"/>
    <path fill="url(#iconV_d_nb)" d="M53.9 105.9c-28.4 0-51.5-23.1-51.5-51.5S25.5 2.9 53.9 2.9s51.5 23.1 51.5 51.5-23.1 51.5-51.5 51.5zm0-99.6c-26.5 0-48 21.6-48 48s21.6 48 48 48c26.5 0 48-21.6 48-48s-21.6-48-48-48z"/>
  </svg>