<svg xmlns="http://www.w3.org/2000/svg" width="1180" height="660" viewBox="0 0 1180 660" role="img" aria-labelledby="title desc">
<title>Booths do not equal agenda power</title>
<desc>Matched speakers per 100 exhibitor companies, selected countries with &gt;=20 exhibitors</desc>
<rect width="100%" height="100%" fill="#fbfaf7"/>
<text x="40" y="48" font-family="Inter, Arial, sans-serif" font-size="28" font-weight="800" fill="#1b1b1b">Booths do not equal agenda power</text>
<text x="40" y="82" font-family="Inter, Arial, sans-serif" font-size="16" fill="#4f4a45">Matched speakers per 100 exhibitor companies, selected countries with &gt;=20 exhibitors</text>
<text x="40" y="147" font-family="Inter, Arial, sans-serif" font-size="15" fill="#26221f">United States of America</text>
<rect x="330" y="130" width="722.2" height="24" rx="3" fill="#18805B" opacity="0.92"/>
<text x="1060.2" y="149" font-family="Inter, Arial, sans-serif" font-size="14" fill="#26221f">93.2</text>
<text x="40" y="195" font-family="Inter, Arial, sans-serif" font-size="15" fill="#26221f">United Kingdom</text>
<rect x="330" y="178" width="469.6" height="24" rx="3" fill="#18805B" opacity="0.92"/>
<text x="807.6" y="197" font-family="Inter, Arial, sans-serif" font-size="14" fill="#26221f">60.6</text>
<text x="40" y="243" font-family="Inter, Arial, sans-serif" font-size="15" fill="#26221f">China</text>
<rect x="330" y="226" width="276.6" height="24" rx="3" fill="#18805B" opacity="0.92"/>
<text x="614.6" y="245" font-family="Inter, Arial, sans-serif" font-size="14" fill="#26221f">35.7</text>
<text x="40" y="291" font-family="Inter, Arial, sans-serif" font-size="15" fill="#26221f">Hong Kong</text>
<rect x="330" y="274" width="160.4" height="24" rx="3" fill="#18805B" opacity="0.92"/>
<text x="498.4" y="293" font-family="Inter, Arial, sans-serif" font-size="14" fill="#26221f">20.7</text>
<text x="40" y="339" font-family="Inter, Arial, sans-serif" font-size="15" fill="#26221f">France</text>
<rect x="330" y="322" width="88.3" height="24" rx="3" fill="#18805B" opacity="0.92"/>
<text x="426.3" y="341" font-family="Inter, Arial, sans-serif" font-size="14" fill="#26221f">11.4</text>
<text x="40" y="387" font-family="Inter, Arial, sans-serif" font-size="15" fill="#26221f">Germany</text>
<rect x="330" y="370" width="86.8" height="24" rx="3" fill="#18805B" opacity="0.92"/>
<text x="424.8" y="389" font-family="Inter, Arial, sans-serif" font-size="14" fill="#26221f">11.2</text>
<text x="40" y="435" font-family="Inter, Arial, sans-serif" font-size="15" fill="#26221f">India</text>
<rect x="330" y="418" width="26.3" height="24" rx="3" fill="#18805B" opacity="0.92"/>
<text x="364.3" y="437" font-family="Inter, Arial, sans-serif" font-size="14" fill="#26221f">3.4</text>
<text x="40" y="483" font-family="Inter, Arial, sans-serif" font-size="15" fill="#26221f">South Korea</text>
<rect x="330" y="466" width="16.3" height="24" rx="3" fill="#18805B" opacity="0.92"/>
<text x="354.3" y="485" font-family="Inter, Arial, sans-serif" font-size="14" fill="#26221f">2.1</text>
<text x="40" y="531" font-family="Inter, Arial, sans-serif" font-size="15" fill="#26221f">Canada</text>
<rect x="330" y="514" width="12.4" height="24" rx="3" fill="#18805B" opacity="0.92"/>
<text x="350.4" y="533" font-family="Inter, Arial, sans-serif" font-size="14" fill="#26221f">1.6</text>
<text x="40" y="579" font-family="Inter, Arial, sans-serif" font-size="15" fill="#26221f">korearepublicof</text>
<rect x="330" y="562" width="1.0" height="24" rx="3" fill="#18805B" opacity="0.92"/>
<text x="339.0" y="581" font-family="Inter, Arial, sans-serif" font-size="14" fill="#26221f">0.0</text>
</svg>