<svg xmlns="http://www.w3.org/2000/svg" width="1180" height="612" viewBox="0 0 1180 612" role="img" aria-labelledby="title desc">
<title>VivaTech&#x27;s stage is a boss layer</title>
<desc>Speaker share by role bucket</desc>
<rect width="100%" height="100%" fill="#fbfaf7"/>
<text x="40" y="48" font-family="Inter, Arial, sans-serif" font-size="28" font-weight="800" fill="#1b1b1b">VivaTech&#x27;s stage is a boss layer</text>
<text x="40" y="82" font-family="Inter, Arial, sans-serif" font-size="16" fill="#4f4a45">Speaker share by role bucket</text>
<text x="40" y="147" font-family="Inter, Arial, sans-serif" font-size="15" fill="#26221f">CEO / president / GM</text>
<rect x="330" y="130" width="722.2" height="24" rx="3" fill="#18805B" opacity="0.92"/>
<text x="1060.2" y="149" font-family="Inter, Arial, sans-serif" font-size="14" fill="#26221f">23.2%</text>
<text x="40" y="195" font-family="Inter, Arial, sans-serif" font-size="15" fill="#26221f">Other leadership / specialist</text>
<rect x="330" y="178" width="591.5" height="24" rx="3" fill="#18805B" opacity="0.92"/>
<text x="929.5" y="197" font-family="Inter, Arial, sans-serif" font-size="14" fill="#26221f">19.0%</text>
<text x="40" y="243" font-family="Inter, Arial, sans-serif" font-size="15" fill="#26221f">Founder / co-founder</text>
<rect x="330" y="226" width="554.1" height="24" rx="3" fill="#18805B" opacity="0.92"/>
<text x="892.1" y="245" font-family="Inter, Arial, sans-serif" font-size="14" fill="#26221f">17.8%</text>
<text x="40" y="291" font-family="Inter, Arial, sans-serif" font-size="15" fill="#26221f">Other C-suite</text>
<rect x="330" y="274" width="541.7" height="24" rx="3" fill="#18805B" opacity="0.92"/>
<text x="879.7" y="293" font-family="Inter, Arial, sans-serif" font-size="14" fill="#26221f">17.4%</text>
<text x="40" y="339" font-family="Inter, Arial, sans-serif" font-size="15" fill="#26221f">Investor / VC</text>
<rect x="330" y="322" width="249.0" height="24" rx="3" fill="#18805B" opacity="0.92"/>
<text x="587.0" y="341" font-family="Inter, Arial, sans-serif" font-size="14" fill="#26221f">8.0%</text>
<text x="40" y="387" font-family="Inter, Arial, sans-serif" font-size="15" fill="#26221f">Product / tech / innovation</text>
<rect x="330" y="370" width="208.6" height="24" rx="3" fill="#18805B" opacity="0.92"/>
<text x="546.6" y="389" font-family="Inter, Arial, sans-serif" font-size="14" fill="#26221f">6.7%</text>
<text x="40" y="435" font-family="Inter, Arial, sans-serif" font-size="15" fill="#26221f">Media / journalist</text>
<rect x="330" y="418" width="99.6" height="24" rx="3" fill="#18805B" opacity="0.92"/>
<text x="437.6" y="437" font-family="Inter, Arial, sans-serif" font-size="14" fill="#26221f">3.2%</text>
<text x="40" y="483" font-family="Inter, Arial, sans-serif" font-size="15" fill="#26221f">Government / public sector</text>
<rect x="330" y="466" width="80.9" height="24" rx="3" fill="#18805B" opacity="0.92"/>
<text x="418.9" y="485" font-family="Inter, Arial, sans-serif" font-size="14" fill="#26221f">2.6%</text>
<text x="40" y="531" font-family="Inter, Arial, sans-serif" font-size="15" fill="#26221f">Academic / research</text>
<rect x="330" y="514" width="62.3" height="24" rx="3" fill="#18805B" opacity="0.92"/>
<text x="400.3" y="533" font-family="Inter, Arial, sans-serif" font-size="14" fill="#26221f">2.0%</text>
</svg>