<svg xmlns="http://www.w3.org/2000/svg" width="900" height="720" viewBox="0 0 900 720" role="img">
<rect width="100%" height="100%" fill="#fbfaf7"/>
<text x="40" y="52" font-family="Inter, Arial, sans-serif" font-size="28" font-weight="900" fill="#171411">Attention inequality across exhibitors</text>
<text x="40" y="84" font-family="Inter, Arial, sans-serif" font-size="15" fill="#5f5750">Most exhibitors have zero matched speakers; a small set absorbs the visible matched-speaker layer.</text>
<rect x="100" y="120" width="500" height="500" fill="#ffffff" stroke="#ddd4c8"/>
<line x1="100" y1="620" x2="600" y2="120" stroke="#7f766e" stroke-dasharray="5 5"/>
<polyline points="100.0,620.0 100.2,620.0 100.3,620.0 100.5,620.0 100.6,620.0 100.8,620.0 101.0,620.0 101.1,620.0 101.3,620.0 101.4,620.0 101.6,620.0 101.7,620.0 101.9,620.0 102.1,620.0 102.2,620.0 102.4,620.0 102.5,620.0 102.7,620.0 102.9,620.0 103.0,620.0 103.2,620.0 103.3,620.0 103.5,620.0 103.6,620.0 103.8,620.0 104.0,620.0 104.1,620.0 104.3,620.0 104.4,620.0 104.6,620.0 104.8,620.0 104.9,620.0 105.1,620.0 105.2,620.0 105.4,620.0 105.6,620.0 105.7,620.0 105.9,620.0 106.0,620.0 106.2,620.0 106.3,620.0 106.5,620.0 106.7,620.0 106.8,620.0 107.0,620.0 107.1,620.0 107.3,620.0 107.5,620.0 107.6,620.0 107.8,620.0 107.9,620.0 108.1,620.0 108.2,620.0 108.4,620.0 108.6,620.0 108.7,620.0 108.9,620.0 109.0,620.0 109.2,620.0 109.4,620.0 109.5,620.0 109.7,620.0 109.8,620.0 110.0,620.0 110.1,620.0 110.3,620.0 110.5,620.0 110.6,620.0 110.8,620.0 110.9,620.0 111.1,620.0 111.3,620.0 111.4,620.0 111.6,620.0 111.7,620.0 111.9,620.0 112.1,620.0 112.2,620.0 112.4,620.0 112.5,620.0 112.7,620.0 112.8,620.0 113.0,620.0 113.2,620.0 113.3,620.0 113.5,620.0 113.6,620.0 113.8,620.0 114.0,620.0 114.1,620.0 114.3,620.0 114.4,620.0 114.6,620.0 114.7,620.0 114.9,620.0 115.1,620.0 115.2,620.0 115.4,620.0 115.5,620.0 115.7,620.0 115.9,620.0 116.0,620.0 116.2,620.0 116.3,620.0 116.5,620.0 116.7,620.0 116.8,620.0 117.0,620.0 117.1,620.0 117.3,620.0 117.4,620.0 117.6,620.0 117.8,620.0 117.9,620.0 118.1,620.0 118.2,620.0 118.4,620.0 118.6,620.0 118.7,620.0 118.9,620.0 119.0,620.0 119.2,620.0 119.3,620.0 119.5,620.0 119.7,620.0 119.8,620.0 120.0,620.0 120.1,620.0 120.3,620.0 120.5,620.0 120.6,620.0 120.8,620.0 120.9,620.0 121.1,620.0 121.2,620.0 121.4,620.0 121.6,620.0 121.7,620.0 121.9,620.0 122.0,620.0 122.2,620.0 122.4,620.0 122.5,620.0 122.7,620.0 122.8,620.0 123.0,620.0 123.2,620.0 123.3,620.0 123.5,620.0 123.6,620.0 123.8,620.0 123.9,620.0 124.1,620.0 124.3,620.0 124.4,620.0 124.6,620.0 124.7,620.0 124.9,620.0 125.1,620.0 125.2,620.0 125.4,620.0 125.5,620.0 125.7,620.0 125.8,620.0 126.0,620.0 126.2,620.0 126.3,620.0 126.5,620.0 126.6,620.0 126.8,620.0 127.0,620.0 127.1,620.0 127.3,620.0 127.4,620.0 127.6,620.0 127.8,620.0 127.9,620.0 128.1,620.0 128.2,620.0 128.4,620.0 128.5,620.0 128.7,620.0 128.9,620.0 129.0,620.0 129.2,620.0 129.3,620.0 129.5,620.0 129.7,620.0 129.8,620.0 130.0,620.0 130.1,620.0 130.3,620.0 130.4,620.0 130.6,620.0 130.8,620.0 130.9,620.0 131.1,620.0 131.2,620.0 131.4,620.0 131.6,620.0 131.7,620.0 131.9,620.0 132.0,620.0 132.2,620.0 132.4,620.0 132.5,620.0 132.7,620.0 132.8,620.0 133.0,620.0 133.1,620.0 133.3,620.0 133.5,620.0 133.6,620.0 133.8,620.0 133.9,620.0 134.1,620.0 134.3,620.0 134.4,620.0 134.6,620.0 134.7,620.0 134.9,620.0 135.0,620.0 135.2,620.0 135.4,620.0 135.5,620.0 135.7,620.0 135.8,620.0 136.0,620.0 136.2,620.0 136.3,620.0 136.5,620.0 136.6,620.0 136.8,620.0 136.9,620.0 137.1,620.0 137.3,620.0 137.4,620.0 137.6,620.0 137.7,620.0 137.9,620.0 138.1,620.0 138.2,620.0 138.4,620.0 138.5,620.0 138.7,620.0 138.9,620.0 139.0,620.0 139.2,620.0 139.3,620.0 139.5,620.0 139.6,620.0 139.8,620.0 140.0,620.0 140.1,620.0 140.3,620.0 140.4,620.0 140.6,620.0 140.8,620.0 140.9,620.0 141.1,620.0 141.2,620.0 141.4,620.0 141.5,620.0 141.7,620.0 141.9,620.0 142.0,620.0 142.2,620.0 142.3,620.0 142.5,620.0 142.7,620.0 142.8,620.0 143.0,620.0 143.1,620.0 143.3,620.0 143.5,620.0 143.6,620.0 143.8,620.0 143.9,620.0 144.1,620.0 144.2,620.0 144.4,620.0 144.6,620.0 144.7,620.0 144.9,620.0 145.0,620.0 145.2,620.0 145.4,620.0 145.5,620.0 145.7,620.0 145.8,620.0 146.0,620.0 146.1,620.0 146.3,620.0 146.5,620.0 146.6,620.0 146.8,620.0 146.9,620.0 147.1,620.0 147.3,620.0 147.4,620.0 147.6,620.0 147.7,620.0 147.9,620.0 148.0,620.0 148.2,620.0 148.4,620.0 148.5,620.0 148.7,620.0 148.8,620.0 149.0,620.0 149.2,620.0 149.3,620.0 149.5,620.0 149.6,620.0 149.8,620.0 150.0,620.0 150.1,620.0 150.3,620.0 150.4,620.0 150.6,620.0 150.7,620.0 150.9,620.0 151.1,620.0 151.2,620.0 151.4,620.0 151.5,620.0 151.7,620.0 151.9,620.0 152.0,620.0 152.2,620.0 152.3,620.0 152.5,620.0 152.6,620.0 152.8,620.0 153.0,620.0 153.1,620.0 153.3,620.0 153.4,620.0 153.6,620.0 153.8,620.0 153.9,620.0 154.1,620.0 154.2,620.0 154.4,620.0 154.6,620.0 154.7,620.0 154.9,620.0 155.0,620.0 155.2,620.0 155.3,620.0 155.5,620.0 155.7,620.0 155.8,620.0 156.0,620.0 156.1,620.0 156.3,620.0 156.5,620.0 156.6,620.0 156.8,620.0 156.9,620.0 157.1,620.0 157.2,620.0 157.4,620.0 157.6,620.0 157.7,620.0 157.9,620.0 158.0,620.0 158.2,620.0 158.4,620.0 158.5,620.0 158.7,620.0 158.8,620.0 159.0,620.0 159.2,620.0 159.3,620.0 159.5,620.0 159.6,620.0 159.8,620.0 159.9,620.0 160.1,620.0 160.3,620.0 160.4,620.0 160.6,620.0 160.7,620.0 160.9,620.0 161.1,620.0 161.2,620.0 161.4,620.0 161.5,620.0 161.7,620.0 161.8,620.0 162.0,620.0 162.2,620.0 162.3,620.0 162.5,620.0 162.6,620.0 162.8,620.0 163.0,620.0 163.1,620.0 163.3,620.0 163.4,620.0 163.6,620.0 163.7,620.0 163.9,620.0 164.1,620.0 164.2,620.0 164.4,620.0 164.5,620.0 164.7,620.0 164.9,620.0 165.0,620.0 165.2,620.0 165.3,620.0 165.5,620.0 165.7,620.0 165.8,620.0 166.0,620.0 166.1,620.0 166.3,620.0 166.4,620.0 166.6,620.0 166.8,620.0 166.9,620.0 167.1,620.0 167.2,620.0 167.4,620.0 167.6,620.0 167.7,620.0 167.9,620.0 168.0,620.0 168.2,620.0 168.3,620.0 168.5,620.0 168.7,620.0 168.8,620.0 169.0,620.0 169.1,620.0 169.3,620.0 169.5,620.0 169.6,620.0 169.8,620.0 169.9,620.0 170.1,620.0 170.3,620.0 170.4,620.0 170.6,620.0 170.7,620.0 170.9,620.0 171.0,620.0 171.2,620.0 171.4,620.0 171.5,620.0 171.7,620.0 171.8,620.0 172.0,620.0 172.2,620.0 172.3,620.0 172.5,620.0 172.6,620.0 172.8,620.0 172.9,620.0 173.1,620.0 173.3,620.0 173.4,620.0 173.6,620.0 173.7,620.0 173.9,620.0 174.1,620.0 174.2,620.0 174.4,620.0 174.5,620.0 174.7,620.0 174.8,620.0 175.0,620.0 175.2,620.0 175.3,620.0 175.5,620.0 175.6,620.0 175.8,620.0 176.0,620.0 176.1,620.0 176.3,620.0 176.4,620.0 176.6,620.0 176.8,620.0 176.9,620.0 177.1,620.0 177.2,620.0 177.4,620.0 177.5,620.0 177.7,620.0 177.9,620.0 178.0,620.0 178.2,620.0 178.3,620.0 178.5,620.0 178.7,620.0 178.8,620.0 179.0,620.0 179.1,620.0 179.3,620.0 179.4,620.0 179.6,620.0 179.8,620.0 179.9,620.0 180.1,620.0 180.2,620.0 180.4,620.0 180.6,620.0 180.7,620.0 180.9,620.0 181.0,620.0 181.2,620.0 181.4,620.0 181.5,620.0 181.7,620.0 181.8,620.0 182.0,620.0 182.1,620.0 182.3,620.0 182.5,620.0 182.6,620.0 182.8,620.0 182.9,620.0 183.1,620.0 183.3,620.0 183.4,620.0 183.6,620.0 183.7,620.0 183.9,620.0 184.0,620.0 184.2,620.0 184.4,620.0 184.5,620.0 184.7,620.0 184.8,620.0 185.0,620.0 185.2,620.0 185.3,620.0 185.5,620.0 185.6,620.0 185.8,620.0 185.9,620.0 186.1,620.0 186.3,620.0 186.4,620.0 186.6,620.0 186.7,620.0 186.9,620.0 187.1,620.0 187.2,620.0 187.4,620.0 187.5,620.0 187.7,620.0 187.9,620.0 188.0,620.0 188.2,620.0 188.3,620.0 188.5,620.0 188.6,620.0 188.8,620.0 189.0,620.0 189.1,620.0 189.3,620.0 189.4,620.0 189.6,620.0 189.8,620.0 189.9,620.0 190.1,620.0 190.2,620.0 190.4,620.0 190.5,620.0 190.7,620.0 190.9,620.0 191.0,620.0 191.2,620.0 191.3,620.0 191.5,620.0 191.7,620.0 191.8,620.0 192.0,620.0 192.1,620.0 192.3,620.0 192.5,620.0 192.6,620.0 192.8,620.0 192.9,620.0 193.1,620.0 193.2,620.0 193.4,620.0 193.6,620.0 193.7,620.0 193.9,620.0 194.0,620.0 194.2,620.0 194.4,620.0 194.5,620.0 194.7,620.0 194.8,620.0 195.0,620.0 195.1,620.0 195.3,620.0 195.5,620.0 195.6,620.0 195.8,620.0 195.9,620.0 196.1,620.0 196.3,620.0 196.4,620.0 196.6,620.0 196.7,620.0 196.9,620.0 197.1,620.0 197.2,620.0 197.4,620.0 197.5,620.0 197.7,620.0 197.8,620.0 198.0,620.0 198.2,620.0 198.3,620.0 198.5,620.0 198.6,620.0 198.8,620.0 199.0,620.0 199.1,620.0 199.3,620.0 199.4,620.0 199.6,620.0 199.7,620.0 199.9,620.0 200.1,620.0 200.2,620.0 200.4,620.0 200.5,620.0 200.7,620.0 200.9,620.0 201.0,620.0 201.2,620.0 201.3,620.0 201.5,620.0 201.6,620.0 201.8,620.0 202.0,620.0 202.1,620.0 202.3,620.0 202.4,620.0 202.6,620.0 202.8,620.0 202.9,620.0 203.1,620.0 203.2,620.0 203.4,620.0 203.6,620.0 203.7,620.0 203.9,620.0 204.0,620.0 204.2,620.0 204.3,620.0 204.5,620.0 204.7,620.0 204.8,620.0 205.0,620.0 205.1,620.0 205.3,620.0 205.5,620.0 205.6,620.0 205.8,620.0 205.9,620.0 206.1,620.0 206.2,620.0 206.4,620.0 206.6,620.0 206.7,620.0 206.9,620.0 207.0,620.0 207.2,620.0 207.4,620.0 207.5,620.0 207.7,620.0 207.8,620.0 208.0,620.0 208.2,620.0 208.3,620.0 208.5,620.0 208.6,620.0 208.8,620.0 208.9,620.0 209.1,620.0 209.3,620.0 209.4,620.0 209.6,620.0 209.7,620.0 209.9,620.0 210.1,620.0 210.2,620.0 210.4,620.0 210.5,620.0 210.7,620.0 210.8,620.0 211.0,620.0 211.2,620.0 211.3,620.0 211.5,620.0 211.6,620.0 211.8,620.0 212.0,620.0 212.1,620.0 212.3,620.0 212.4,620.0 212.6,620.0 212.7,620.0 212.9,620.0 213.1,620.0 213.2,620.0 213.4,620.0 213.5,620.0 213.7,620.0 213.9,620.0 214.0,620.0 214.2,620.0 214.3,620.0 214.5,620.0 214.7,620.0 214.8,620.0 215.0,620.0 215.1,620.0 215.3,620.0 215.4,620.0 215.6,620.0 215.8,620.0 215.9,620.0 216.1,620.0 216.2,620.0 216.4,620.0 216.6,620.0 216.7,620.0 216.9,620.0 217.0,620.0 217.2,620.0 217.3,620.0 217.5,620.0 217.7,620.0 217.8,620.0 218.0,620.0 218.1,620.0 218.3,620.0 218.5,620.0 218.6,620.0 218.8,620.0 218.9,620.0 219.1,620.0 219.3,620.0 219.4,620.0 219.6,620.0 219.7,620.0 219.9,620.0 220.0,620.0 220.2,620.0 220.4,620.0 220.5,620.0 220.7,620.0 220.8,620.0 221.0,620.0 221.2,620.0 221.3,620.0 221.5,620.0 221.6,620.0 221.8,620.0 221.9,620.0 222.1,620.0 222.3,620.0 222.4,620.0 222.6,620.0 222.7,620.0 222.9,620.0 223.1,620.0 223.2,620.0 223.4,620.0 223.5,620.0 223.7,620.0 223.9,620.0 224.0,620.0 224.2,620.0 224.3,620.0 224.5,620.0 224.6,620.0 224.8,620.0 225.0,620.0 225.1,620.0 225.3,620.0 225.4,620.0 225.6,620.0 225.8,620.0 225.9,620.0 226.1,620.0 226.2,620.0 226.4,620.0 226.5,620.0 226.7,620.0 226.9,620.0 227.0,620.0 227.2,620.0 227.3,620.0 227.5,620.0 227.7,620.0 227.8,620.0 228.0,620.0 228.1,620.0 228.3,620.0 228.4,620.0 228.6,620.0 228.8,620.0 228.9,620.0 229.1,620.0 229.2,620.0 229.4,620.0 229.6,620.0 229.7,620.0 229.9,620.0 230.0,620.0 230.2,620.0 230.4,620.0 230.5,620.0 230.7,620.0 230.8,620.0 231.0,620.0 231.1,620.0 231.3,620.0 231.5,620.0 231.6,620.0 231.8,620.0 231.9,620.0 232.1,620.0 232.3,620.0 232.4,620.0 232.6,620.0 232.7,620.0 232.9,620.0 233.0,620.0 233.2,620.0 233.4,620.0 233.5,620.0 233.7,620.0 233.8,620.0 234.0,620.0 234.2,620.0 234.3,620.0 234.5,620.0 234.6,620.0 234.8,620.0 235.0,620.0 235.1,620.0 235.3,620.0 235.4,620.0 235.6,620.0 235.7,620.0 235.9,620.0 236.1,620.0 236.2,620.0 236.4,620.0 236.5,620.0 236.7,620.0 236.9,620.0 237.0,620.0 237.2,620.0 237.3,620.0 237.5,620.0 237.6,620.0 237.8,620.0 238.0,620.0 238.1,620.0 238.3,620.0 238.4,620.0 238.6,620.0 238.8,620.0 238.9,620.0 239.1,620.0 239.2,620.0 239.4,620.0 239.5,620.0 239.7,620.0 239.9,620.0 240.0,620.0 240.2,620.0 240.3,620.0 240.5,620.0 240.7,620.0 240.8,620.0 241.0,620.0 241.1,620.0 241.3,620.0 241.5,620.0 241.6,620.0 241.8,620.0 241.9,620.0 242.1,620.0 242.2,620.0 242.4,620.0 242.6,620.0 242.7,620.0 242.9,620.0 243.0,620.0 243.2,620.0 243.4,620.0 243.5,620.0 243.7,620.0 243.8,620.0 244.0,620.0 244.1,620.0 244.3,620.0 244.5,620.0 244.6,620.0 244.8,620.0 244.9,620.0 245.1,620.0 245.3,620.0 245.4,620.0 245.6,620.0 245.7,620.0 245.9,620.0 246.1,620.0 246.2,620.0 246.4,620.0 246.5,620.0 246.7,620.0 246.8,620.0 247.0,620.0 247.2,620.0 247.3,620.0 247.5,620.0 247.6,620.0 247.8,620.0 248.0,620.0 248.1,620.0 248.3,620.0 248.4,620.0 248.6,620.0 248.7,620.0 248.9,620.0 249.1,620.0 249.2,620.0 249.4,620.0 249.5,620.0 249.7,620.0 249.9,620.0 250.0,620.0 250.2,620.0 250.3,620.0 250.5,620.0 250.7,620.0 250.8,620.0 251.0,620.0 251.1,620.0 251.3,620.0 251.4,620.0 251.6,620.0 251.8,620.0 251.9,620.0 252.1,620.0 252.2,620.0 252.4,620.0 252.6,620.0 252.7,620.0 252.9,620.0 253.0,620.0 253.2,620.0 253.3,620.0 253.5,620.0 253.7,620.0 253.8,620.0 254.0,620.0 254.1,620.0 254.3,620.0 254.5,620.0 254.6,620.0 254.8,620.0 254.9,620.0 255.1,620.0 255.2,620.0 255.4,620.0 255.6,620.0 255.7,620.0 255.9,620.0 256.0,620.0 256.2,620.0 256.4,620.0 256.5,620.0 256.7,620.0 256.8,620.0 257.0,620.0 257.2,620.0 257.3,620.0 257.5,620.0 257.6,620.0 257.8,620.0 257.9,620.0 258.1,620.0 258.3,620.0 258.4,620.0 258.6,620.0 258.7,620.0 258.9,620.0 259.1,620.0 259.2,620.0 259.4,620.0 259.5,620.0 259.7,620.0 259.8,620.0 260.0,620.0 260.2,620.0 260.3,620.0 260.5,620.0 260.6,620.0 260.8,620.0 261.0,620.0 261.1,620.0 261.3,620.0 261.4,620.0 261.6,620.0 261.8,620.0 261.9,620.0 262.1,620.0 262.2,620.0 262.4,620.0 262.5,620.0 262.7,620.0 262.9,620.0 263.0,620.0 263.2,620.0 263.3,620.0 263.5,620.0 263.7,620.0 263.8,620.0 264.0,620.0 264.1,620.0 264.3,620.0 264.4,620.0 264.6,620.0 264.8,620.0 264.9,620.0 265.1,620.0 265.2,620.0 265.4,620.0 265.6,620.0 265.7,620.0 265.9,620.0 266.0,620.0 266.2,620.0 266.3,620.0 266.5,620.0 266.7,620.0 266.8,620.0 267.0,620.0 267.1,620.0 267.3,620.0 267.5,620.0 267.6,620.0 267.8,620.0 267.9,620.0 268.1,620.0 268.3,620.0 268.4,620.0 268.6,620.0 268.7,620.0 268.9,620.0 269.0,620.0 269.2,620.0 269.4,620.0 269.5,620.0 269.7,620.0 269.8,620.0 270.0,620.0 270.2,620.0 270.3,620.0 270.5,620.0 270.6,620.0 270.8,620.0 270.9,620.0 271.1,620.0 271.3,620.0 271.4,620.0 271.6,620.0 271.7,620.0 271.9,620.0 272.1,620.0 272.2,620.0 272.4,620.0 272.5,620.0 272.7,620.0 272.9,620.0 273.0,620.0 273.2,620.0 273.3,620.0 273.5,620.0 273.6,620.0 273.8,620.0 274.0,620.0 274.1,620.0 274.3,620.0 274.4,620.0 274.6,620.0 274.8,620.0 274.9,620.0 275.1,620.0 275.2,620.0 275.4,620.0 275.5,620.0 275.7,620.0 275.9,620.0 276.0,620.0 276.2,620.0 276.3,620.0 276.5,620.0 276.7,620.0 276.8,620.0 277.0,620.0 277.1,620.0 277.3,620.0 277.5,620.0 277.6,620.0 277.8,620.0 277.9,620.0 278.1,620.0 278.2,620.0 278.4,620.0 278.6,620.0 278.7,620.0 278.9,620.0 279.0,620.0 279.2,620.0 279.4,620.0 279.5,620.0 279.7,620.0 279.8,620.0 280.0,620.0 280.1,620.0 280.3,620.0 280.5,620.0 280.6,620.0 280.8,620.0 280.9,620.0 281.1,620.0 281.3,620.0 281.4,620.0 281.6,620.0 281.7,620.0 281.9,620.0 282.0,620.0 282.2,620.0 282.4,620.0 282.5,620.0 282.7,620.0 282.8,620.0 283.0,620.0 283.2,620.0 283.3,620.0 283.5,620.0 283.6,620.0 283.8,620.0 284.0,620.0 284.1,620.0 284.3,620.0 284.4,620.0 284.6,620.0 284.7,620.0 284.9,620.0 285.1,620.0 285.2,620.0 285.4,620.0 285.5,620.0 285.7,620.0 285.9,620.0 286.0,620.0 286.2,620.0 286.3,620.0 286.5,620.0 286.6,620.0 286.8,620.0 287.0,620.0 287.1,620.0 287.3,620.0 287.4,620.0 287.6,620.0 287.8,620.0 287.9,620.0 288.1,620.0 288.2,620.0 288.4,620.0 288.6,620.0 288.7,620.0 288.9,620.0 289.0,620.0 289.2,620.0 289.3,620.0 289.5,620.0 289.7,620.0 289.8,620.0 290.0,620.0 290.1,620.0 290.3,620.0 290.5,620.0 290.6,620.0 290.8,620.0 290.9,620.0 291.1,620.0 291.2,620.0 291.4,620.0 291.6,620.0 291.7,620.0 291.9,620.0 292.0,620.0 292.2,620.0 292.4,620.0 292.5,620.0 292.7,620.0 292.8,620.0 293.0,620.0 293.1,620.0 293.3,620.0 293.5,620.0 293.6,620.0 293.8,620.0 293.9,620.0 294.1,620.0 294.3,620.0 294.4,620.0 294.6,620.0 294.7,620.0 294.9,620.0 295.1,620.0 295.2,620.0 295.4,620.0 295.5,620.0 295.7,620.0 295.8,620.0 296.0,620.0 296.2,620.0 296.3,620.0 296.5,620.0 296.6,620.0 296.8,620.0 297.0,620.0 297.1,620.0 297.3,620.0 297.4,620.0 297.6,620.0 297.7,620.0 297.9,620.0 298.1,620.0 298.2,620.0 298.4,620.0 298.5,620.0 298.7,620.0 298.9,620.0 299.0,620.0 299.2,620.0 299.3,620.0 299.5,620.0 299.7,620.0 299.8,620.0 300.0,620.0 300.1,620.0 300.3,620.0 300.4,620.0 300.6,620.0 300.8,620.0 300.9,620.0 301.1,620.0 301.2,620.0 301.4,620.0 301.6,620.0 301.7,620.0 301.9,620.0 302.0,620.0 302.2,620.0 302.3,620.0 302.5,620.0 302.7,620.0 302.8,620.0 303.0,620.0 303.1,620.0 303.3,620.0 303.5,620.0 303.6,620.0 303.8,620.0 303.9,620.0 304.1,620.0 304.2,620.0 304.4,620.0 304.6,620.0 304.7,620.0 304.9,620.0 305.0,620.0 305.2,620.0 305.4,620.0 305.5,620.0 305.7,620.0 305.8,620.0 306.0,620.0 306.2,620.0 306.3,620.0 306.5,620.0 306.6,620.0 306.8,620.0 306.9,620.0 307.1,620.0 307.3,620.0 307.4,620.0 307.6,620.0 307.7,620.0 307.9,620.0 308.1,620.0 308.2,620.0 308.4,620.0 308.5,620.0 308.7,620.0 308.8,620.0 309.0,620.0 309.2,620.0 309.3,620.0 309.5,620.0 309.6,620.0 309.8,620.0 310.0,620.0 310.1,620.0 310.3,620.0 310.4,620.0 310.6,620.0 310.8,620.0 310.9,620.0 311.1,620.0 311.2,620.0 311.4,620.0 311.5,620.0 311.7,620.0 311.9,620.0 312.0,620.0 312.2,620.0 312.3,620.0 312.5,620.0 312.7,620.0 312.8,620.0 313.0,620.0 313.1,620.0 313.3,620.0 313.4,620.0 313.6,620.0 313.8,620.0 313.9,620.0 314.1,620.0 314.2,620.0 314.4,620.0 314.6,620.0 314.7,620.0 314.9,620.0 315.0,620.0 315.2,620.0 315.4,620.0 315.5,620.0 315.7,620.0 315.8,620.0 316.0,620.0 316.1,620.0 316.3,620.0 316.5,620.0 316.6,620.0 316.8,620.0 316.9,620.0 317.1,620.0 317.3,620.0 317.4,620.0 317.6,620.0 317.7,620.0 317.9,620.0 318.0,620.0 318.2,620.0 318.4,620.0 318.5,620.0 318.7,620.0 318.8,620.0 319.0,620.0 319.2,620.0 319.3,620.0 319.5,620.0 319.6,620.0 319.8,620.0 319.9,620.0 320.1,620.0 320.3,620.0 320.4,620.0 320.6,620.0 320.7,620.0 320.9,620.0 321.1,620.0 321.2,620.0 321.4,620.0 321.5,620.0 321.7,620.0 321.9,620.0 322.0,620.0 322.2,620.0 322.3,620.0 322.5,620.0 322.6,620.0 322.8,620.0 323.0,620.0 323.1,620.0 323.3,620.0 323.4,620.0 323.6,620.0 323.8,620.0 323.9,620.0 324.1,620.0 324.2,620.0 324.4,620.0 324.5,620.0 324.7,620.0 324.9,620.0 325.0,620.0 325.2,620.0 325.3,620.0 325.5,620.0 325.7,620.0 325.8,620.0 326.0,620.0 326.1,620.0 326.3,620.0 326.5,620.0 326.6,620.0 326.8,620.0 326.9,620.0 327.1,620.0 327.2,620.0 327.4,620.0 327.6,620.0 327.7,620.0 327.9,620.0 328.0,620.0 328.2,620.0 328.4,620.0 328.5,620.0 328.7,620.0 328.8,620.0 329.0,620.0 329.1,620.0 329.3,620.0 329.5,620.0 329.6,620.0 329.8,620.0 329.9,620.0 330.1,620.0 330.3,620.0 330.4,620.0 330.6,620.0 330.7,620.0 330.9,620.0 331.0,620.0 331.2,620.0 331.4,620.0 331.5,620.0 331.7,620.0 331.8,620.0 332.0,620.0 332.2,620.0 332.3,620.0 332.5,620.0 332.6,620.0 332.8,620.0 333.0,620.0 333.1,620.0 333.3,620.0 333.4,620.0 333.6,620.0 333.7,620.0 333.9,620.0 334.1,620.0 334.2,620.0 334.4,620.0 334.5,620.0 334.7,620.0 334.9,620.0 335.0,620.0 335.2,620.0 335.3,620.0 335.5,620.0 335.6,620.0 335.8,620.0 336.0,620.0 336.1,620.0 336.3,620.0 336.4,620.0 336.6,620.0 336.8,620.0 336.9,620.0 337.1,620.0 337.2,620.0 337.4,620.0 337.6,620.0 337.7,620.0 337.9,620.0 338.0,620.0 338.2,620.0 338.3,620.0 338.5,620.0 338.7,620.0 338.8,620.0 339.0,620.0 339.1,620.0 339.3,620.0 339.5,620.0 339.6,620.0 339.8,620.0 339.9,620.0 340.1,620.0 340.2,620.0 340.4,620.0 340.6,620.0 340.7,620.0 340.9,620.0 341.0,620.0 341.2,620.0 341.4,620.0 341.5,620.0 341.7,620.0 341.8,620.0 342.0,620.0 342.2,620.0 342.3,620.0 342.5,620.0 342.6,620.0 342.8,620.0 342.9,620.0 343.1,620.0 343.3,620.0 343.4,620.0 343.6,620.0 343.7,620.0 343.9,620.0 344.1,620.0 344.2,620.0 344.4,620.0 344.5,620.0 344.7,620.0 344.8,620.0 345.0,620.0 345.2,620.0 345.3,620.0 345.5,620.0 345.6,620.0 345.8,620.0 346.0,620.0 346.1,620.0 346.3,620.0 346.4,620.0 346.6,620.0 346.7,620.0 346.9,620.0 347.1,620.0 347.2,620.0 347.4,620.0 347.5,620.0 347.7,620.0 347.9,620.0 348.0,620.0 348.2,620.0 348.3,620.0 348.5,620.0 348.7,620.0 348.8,620.0 349.0,620.0 349.1,620.0 349.3,620.0 349.4,620.0 349.6,620.0 349.8,620.0 349.9,620.0 350.1,620.0 350.2,620.0 350.4,620.0 350.6,620.0 350.7,620.0 350.9,620.0 351.0,620.0 351.2,620.0 351.3,620.0 351.5,620.0 351.7,620.0 351.8,620.0 352.0,620.0 352.1,620.0 352.3,620.0 352.5,620.0 352.6,620.0 352.8,620.0 352.9,620.0 353.1,620.0 353.3,620.0 353.4,620.0 353.6,620.0 353.7,620.0 353.9,620.0 354.0,620.0 354.2,620.0 354.4,620.0 354.5,620.0 354.7,620.0 354.8,620.0 355.0,620.0 355.2,620.0 355.3,620.0 355.5,620.0 355.6,620.0 355.8,620.0 355.9,620.0 356.1,620.0 356.3,620.0 356.4,620.0 356.6,620.0 356.7,620.0 356.9,620.0 357.1,620.0 357.2,620.0 357.4,620.0 357.5,620.0 357.7,620.0 357.8,620.0 358.0,620.0 358.2,620.0 358.3,620.0 358.5,620.0 358.6,620.0 358.8,620.0 359.0,620.0 359.1,620.0 359.3,620.0 359.4,620.0 359.6,620.0 359.8,620.0 359.9,620.0 360.1,620.0 360.2,620.0 360.4,620.0 360.5,620.0 360.7,620.0 360.9,620.0 361.0,620.0 361.2,620.0 361.3,620.0 361.5,620.0 361.7,620.0 361.8,620.0 362.0,620.0 362.1,620.0 362.3,620.0 362.4,620.0 362.6,620.0 362.8,620.0 362.9,620.0 363.1,620.0 363.2,620.0 363.4,620.0 363.6,620.0 363.7,620.0 363.9,620.0 364.0,620.0 364.2,620.0 364.4,620.0 364.5,620.0 364.7,620.0 364.8,620.0 365.0,620.0 365.1,620.0 365.3,620.0 365.5,620.0 365.6,620.0 365.8,620.0 365.9,620.0 366.1,620.0 366.3,620.0 366.4,620.0 366.6,620.0 366.7,620.0 366.9,620.0 367.0,620.0 367.2,620.0 367.4,620.0 367.5,620.0 367.7,620.0 367.8,620.0 368.0,620.0 368.2,620.0 368.3,620.0 368.5,620.0 368.6,620.0 368.8,620.0 369.0,620.0 369.1,620.0 369.3,620.0 369.4,620.0 369.6,620.0 369.7,620.0 369.9,620.0 370.1,620.0 370.2,620.0 370.4,620.0 370.5,620.0 370.7,620.0 370.9,620.0 371.0,620.0 371.2,620.0 371.3,620.0 371.5,620.0 371.6,620.0 371.8,620.0 372.0,620.0 372.1,620.0 372.3,620.0 372.4,620.0 372.6,620.0 372.8,620.0 372.9,620.0 373.1,620.0 373.2,620.0 373.4,620.0 373.5,620.0 373.7,620.0 373.9,620.0 374.0,620.0 374.2,620.0 374.3,620.0 374.5,620.0 374.7,620.0 374.8,620.0 375.0,620.0 375.1,620.0 375.3,620.0 375.5,620.0 375.6,620.0 375.8,620.0 375.9,620.0 376.1,620.0 376.2,620.0 376.4,620.0 376.6,620.0 376.7,620.0 376.9,620.0 377.0,620.0 377.2,620.0 377.4,620.0 377.5,620.0 377.7,620.0 377.8,620.0 378.0,620.0 378.1,620.0 378.3,620.0 378.5,620.0 378.6,620.0 378.8,620.0 378.9,620.0 379.1,620.0 379.3,620.0 379.4,620.0 379.6,620.0 379.7,620.0 379.9,620.0 380.1,620.0 380.2,620.0 380.4,620.0 380.5,620.0 380.7,620.0 380.8,620.0 381.0,620.0 381.2,620.0 381.3,620.0 381.5,620.0 381.6,620.0 381.8,620.0 382.0,620.0 382.1,620.0 382.3,620.0 382.4,620.0 382.6,620.0 382.7,620.0 382.9,620.0 383.1,620.0 383.2,620.0 383.4,620.0 383.5,620.0 383.7,620.0 383.9,620.0 384.0,620.0 384.2,620.0 384.3,620.0 384.5,620.0 384.6,620.0 384.8,620.0 385.0,620.0 385.1,620.0 385.3,620.0 385.4,620.0 385.6,620.0 385.8,620.0 385.9,620.0 386.1,620.0 386.2,620.0 386.4,620.0 386.6,620.0 386.7,620.0 386.9,620.0 387.0,620.0 387.2,620.0 387.3,620.0 387.5,620.0 387.7,620.0 387.8,620.0 388.0,620.0 388.1,620.0 388.3,620.0 388.5,620.0 388.6,620.0 388.8,620.0 388.9,620.0 389.1,620.0 389.2,620.0 389.4,620.0 389.6,620.0 389.7,620.0 389.9,620.0 390.0,620.0 390.2,620.0 390.4,620.0 390.5,620.0 390.7,620.0 390.8,620.0 391.0,620.0 391.2,620.0 391.3,620.0 391.5,620.0 391.6,620.0 391.8,620.0 391.9,620.0 392.1,620.0 392.3,620.0 392.4,620.0 392.6,620.0 392.7,620.0 392.9,620.0 393.1,620.0 393.2,620.0 393.4,620.0 393.5,620.0 393.7,620.0 393.8,620.0 394.0,620.0 394.2,620.0 394.3,620.0 394.5,620.0 394.6,620.0 394.8,620.0 395.0,620.0 395.1,620.0 395.3,620.0 395.4,620.0 395.6,620.0 395.8,620.0 395.9,620.0 396.1,620.0 396.2,620.0 396.4,620.0 396.5,620.0 396.7,620.0 396.9,620.0 397.0,620.0 397.2,620.0 397.3,620.0 397.5,620.0 397.7,620.0 397.8,620.0 398.0,620.0 398.1,620.0 398.3,620.0 398.4,620.0 398.6,620.0 398.8,620.0 398.9,620.0 399.1,620.0 399.2,620.0 399.4,620.0 399.6,620.0 399.7,620.0 399.9,620.0 400.0,620.0 400.2,620.0 400.3,620.0 400.5,620.0 400.7,620.0 400.8,620.0 401.0,620.0 401.1,620.0 401.3,620.0 401.5,620.0 401.6,620.0 401.8,620.0 401.9,620.0 402.1,620.0 402.3,620.0 402.4,620.0 402.6,620.0 402.7,620.0 402.9,620.0 403.0,620.0 403.2,620.0 403.4,620.0 403.5,620.0 403.7,620.0 403.8,620.0 404.0,620.0 404.2,620.0 404.3,620.0 404.5,620.0 404.6,620.0 404.8,620.0 404.9,620.0 405.1,620.0 405.3,620.0 405.4,620.0 405.6,620.0 405.7,620.0 405.9,620.0 406.1,620.0 406.2,620.0 406.4,620.0 406.5,620.0 406.7,620.0 406.9,620.0 407.0,620.0 407.2,620.0 407.3,620.0 407.5,620.0 407.6,620.0 407.8,620.0 408.0,620.0 408.1,620.0 408.3,620.0 408.4,620.0 408.6,620.0 408.8,620.0 408.9,620.0 409.1,620.0 409.2,620.0 409.4,620.0 409.5,620.0 409.7,620.0 409.9,620.0 410.0,620.0 410.2,620.0 410.3,620.0 410.5,620.0 410.7,620.0 410.8,620.0 411.0,620.0 411.1,620.0 411.3,620.0 411.4,620.0 411.6,620.0 411.8,620.0 411.9,620.0 412.1,620.0 412.2,620.0 412.4,620.0 412.6,620.0 412.7,620.0 412.9,620.0 413.0,620.0 413.2,620.0 413.4,620.0 413.5,620.0 413.7,620.0 413.8,620.0 414.0,620.0 414.1,620.0 414.3,620.0 414.5,620.0 414.6,620.0 414.8,620.0 414.9,620.0 415.1,620.0 415.3,620.0 415.4,620.0 415.6,620.0 415.7,620.0 415.9,620.0 416.0,620.0 416.2,620.0 416.4,620.0 416.5,620.0 416.7,620.0 416.8,620.0 417.0,620.0 417.2,620.0 417.3,620.0 417.5,620.0 417.6,620.0 417.8,620.0 418.0,620.0 418.1,620.0 418.3,620.0 418.4,620.0 418.6,620.0 418.7,620.0 418.9,620.0 419.1,620.0 419.2,620.0 419.4,620.0 419.5,620.0 419.7,620.0 419.9,620.0 420.0,620.0 420.2,620.0 420.3,620.0 420.5,620.0 420.6,620.0 420.8,620.0 421.0,620.0 421.1,620.0 421.3,620.0 421.4,620.0 421.6,620.0 421.8,620.0 421.9,620.0 422.1,620.0 422.2,620.0 422.4,620.0 422.5,620.0 422.7,620.0 422.9,620.0 423.0,620.0 423.2,620.0 423.3,620.0 423.5,620.0 423.7,620.0 423.8,620.0 424.0,620.0 424.1,620.0 424.3,620.0 424.5,620.0 424.6,620.0 424.8,620.0 424.9,620.0 425.1,620.0 425.2,620.0 425.4,620.0 425.6,620.0 425.7,620.0 425.9,620.0 426.0,620.0 426.2,620.0 426.4,620.0 426.5,620.0 426.7,620.0 426.8,620.0 427.0,620.0 427.1,620.0 427.3,620.0 427.5,620.0 427.6,620.0 427.8,620.0 427.9,620.0 428.1,620.0 428.3,620.0 428.4,620.0 428.6,620.0 428.7,620.0 428.9,620.0 429.1,620.0 429.2,620.0 429.4,620.0 429.5,620.0 429.7,620.0 429.8,620.0 430.0,620.0 430.2,620.0 430.3,620.0 430.5,620.0 430.6,620.0 430.8,620.0 431.0,620.0 431.1,620.0 431.3,620.0 431.4,620.0 431.6,620.0 431.7,620.0 431.9,620.0 432.1,620.0 432.2,620.0 432.4,620.0 432.5,620.0 432.7,620.0 432.9,620.0 433.0,620.0 433.2,620.0 433.3,620.0 433.5,620.0 433.7,620.0 433.8,620.0 434.0,620.0 434.1,620.0 434.3,620.0 434.4,620.0 434.6,620.0 434.8,620.0 434.9,620.0 435.1,620.0 435.2,620.0 435.4,620.0 435.6,620.0 435.7,620.0 435.9,620.0 436.0,620.0 436.2,620.0 436.3,620.0 436.5,620.0 436.7,620.0 436.8,620.0 437.0,620.0 437.1,620.0 437.3,620.0 437.5,620.0 437.6,620.0 437.8,620.0 437.9,620.0 438.1,620.0 438.2,620.0 438.4,620.0 438.6,620.0 438.7,620.0 438.9,620.0 439.0,620.0 439.2,620.0 439.4,620.0 439.5,620.0 439.7,620.0 439.8,620.0 440.0,620.0 440.2,620.0 440.3,620.0 440.5,620.0 440.6,620.0 440.8,620.0 440.9,620.0 441.1,620.0 441.3,620.0 441.4,620.0 441.6,620.0 441.7,620.0 441.9,620.0 442.1,620.0 442.2,620.0 442.4,620.0 442.5,620.0 442.7,620.0 442.8,620.0 443.0,620.0 443.2,620.0 443.3,620.0 443.5,620.0 443.6,620.0 443.8,620.0 444.0,620.0 444.1,620.0 444.3,620.0 444.4,620.0 444.6,620.0 444.8,620.0 444.9,620.0 445.1,620.0 445.2,620.0 445.4,620.0 445.5,620.0 445.7,620.0 445.9,620.0 446.0,620.0 446.2,620.0 446.3,620.0 446.5,620.0 446.7,620.0 446.8,620.0 447.0,620.0 447.1,620.0 447.3,620.0 447.4,620.0 447.6,620.0 447.8,620.0 447.9,620.0 448.1,620.0 448.2,620.0 448.4,620.0 448.6,620.0 448.7,620.0 448.9,620.0 449.0,620.0 449.2,620.0 449.3,620.0 449.5,620.0 449.7,620.0 449.8,620.0 450.0,620.0 450.1,620.0 450.3,620.0 450.5,620.0 450.6,620.0 450.8,620.0 450.9,620.0 451.1,620.0 451.3,620.0 451.4,620.0 451.6,620.0 451.7,620.0 451.9,620.0 452.0,620.0 452.2,620.0 452.4,620.0 452.5,620.0 452.7,620.0 452.8,620.0 453.0,620.0 453.2,620.0 453.3,620.0 453.5,620.0 453.6,620.0 453.8,620.0 453.9,620.0 454.1,620.0 454.3,620.0 454.4,620.0 454.6,620.0 454.7,620.0 454.9,620.0 455.1,620.0 455.2,620.0 455.4,620.0 455.5,620.0 455.7,620.0 455.9,620.0 456.0,620.0 456.2,620.0 456.3,620.0 456.5,620.0 456.6,620.0 456.8,620.0 457.0,620.0 457.1,620.0 457.3,620.0 457.4,620.0 457.6,620.0 457.8,620.0 457.9,620.0 458.1,620.0 458.2,620.0 458.4,620.0 458.5,620.0 458.7,620.0 458.9,620.0 459.0,620.0 459.2,620.0 459.3,620.0 459.5,620.0 459.7,620.0 459.8,620.0 460.0,620.0 460.1,620.0 460.3,620.0 460.5,620.0 460.6,620.0 460.8,620.0 460.9,620.0 461.1,620.0 461.2,620.0 461.4,620.0 461.6,620.0 461.7,620.0 461.9,620.0 462.0,620.0 462.2,620.0 462.4,620.0 462.5,620.0 462.7,620.0 462.8,620.0 463.0,620.0 463.1,620.0 463.3,620.0 463.5,620.0 463.6,620.0 463.8,620.0 463.9,620.0 464.1,620.0 464.3,620.0 464.4,620.0 464.6,620.0 464.7,620.0 464.9,620.0 465.0,620.0 465.2,620.0 465.4,620.0 465.5,620.0 465.7,620.0 465.8,620.0 466.0,620.0 466.2,620.0 466.3,620.0 466.5,620.0 466.6,620.0 466.8,620.0 467.0,620.0 467.1,620.0 467.3,620.0 467.4,620.0 467.6,620.0 467.7,620.0 467.9,620.0 468.1,620.0 468.2,620.0 468.4,620.0 468.5,620.0 468.7,620.0 468.9,620.0 469.0,620.0 469.2,620.0 469.3,620.0 469.5,620.0 469.6,620.0 469.8,620.0 470.0,620.0 470.1,620.0 470.3,620.0 470.4,620.0 470.6,620.0 470.8,620.0 470.9,620.0 471.1,620.0 471.2,620.0 471.4,620.0 471.6,620.0 471.7,620.0 471.9,620.0 472.0,620.0 472.2,620.0 472.3,620.0 472.5,620.0 472.7,620.0 472.8,620.0 473.0,620.0 473.1,620.0 473.3,620.0 473.5,620.0 473.6,620.0 473.8,620.0 473.9,620.0 474.1,620.0 474.2,620.0 474.4,620.0 474.6,620.0 474.7,620.0 474.9,620.0 475.0,620.0 475.2,620.0 475.4,620.0 475.5,620.0 475.7,620.0 475.8,620.0 476.0,620.0 476.1,620.0 476.3,620.0 476.5,620.0 476.6,620.0 476.8,620.0 476.9,620.0 477.1,620.0 477.3,620.0 477.4,620.0 477.6,620.0 477.7,620.0 477.9,620.0 478.1,620.0 478.2,620.0 478.4,620.0 478.5,620.0 478.7,620.0 478.8,620.0 479.0,620.0 479.2,620.0 479.3,620.0 479.5,620.0 479.6,620.0 479.8,620.0 480.0,620.0 480.1,620.0 480.3,620.0 480.4,620.0 480.6,620.0 480.7,620.0 480.9,620.0 481.1,620.0 481.2,620.0 481.4,620.0 481.5,620.0 481.7,620.0 481.9,620.0 482.0,620.0 482.2,620.0 482.3,620.0 482.5,620.0 482.7,620.0 482.8,620.0 483.0,620.0 483.1,620.0 483.3,620.0 483.4,620.0 483.6,620.0 483.8,620.0 483.9,620.0 484.1,620.0 484.2,620.0 484.4,620.0 484.6,620.0 484.7,620.0 484.9,620.0 485.0,620.0 485.2,620.0 485.3,620.0 485.5,620.0 485.7,620.0 485.8,620.0 486.0,620.0 486.1,620.0 486.3,620.0 486.5,620.0 486.6,620.0 486.8,620.0 486.9,620.0 487.1,620.0 487.3,620.0 487.4,620.0 487.6,620.0 487.7,620.0 487.9,620.0 488.0,620.0 488.2,620.0 488.4,620.0 488.5,620.0 488.7,620.0 488.8,620.0 489.0,620.0 489.2,620.0 489.3,620.0 489.5,620.0 489.6,620.0 489.8,620.0 489.9,620.0 490.1,620.0 490.3,620.0 490.4,620.0 490.6,620.0 490.7,620.0 490.9,620.0 491.1,620.0 491.2,620.0 491.4,620.0 491.5,620.0 491.7,620.0 491.8,620.0 492.0,620.0 492.2,620.0 492.3,620.0 492.5,620.0 492.6,620.0 492.8,620.0 493.0,620.0 493.1,620.0 493.3,620.0 493.4,620.0 493.6,620.0 493.8,620.0 493.9,620.0 494.1,620.0 494.2,620.0 494.4,620.0 494.5,620.0 494.7,620.0 494.9,620.0 495.0,620.0 495.2,620.0 495.3,620.0 495.5,620.0 495.7,620.0 495.8,620.0 496.0,620.0 496.1,620.0 496.3,620.0 496.4,620.0 496.6,620.0 496.8,620.0 496.9,620.0 497.1,620.0 497.2,620.0 497.4,620.0 497.6,620.0 497.7,620.0 497.9,620.0 498.0,620.0 498.2,620.0 498.4,620.0 498.5,620.0 498.7,620.0 498.8,620.0 499.0,620.0 499.1,620.0 499.3,620.0 499.5,620.0 499.6,620.0 499.8,620.0 499.9,620.0 500.1,620.0 500.3,620.0 500.4,620.0 500.6,620.0 500.7,620.0 500.9,620.0 501.0,620.0 501.2,620.0 501.4,620.0 501.5,620.0 501.7,620.0 501.8,620.0 502.0,620.0 502.2,620.0 502.3,620.0 502.5,620.0 502.6,620.0 502.8,620.0 502.9,620.0 503.1,620.0 503.3,620.0 503.4,620.0 503.6,620.0 503.7,620.0 503.9,620.0 504.1,620.0 504.2,620.0 504.4,620.0 504.5,620.0 504.7,620.0 504.9,620.0 505.0,620.0 505.2,620.0 505.3,620.0 505.5,620.0 505.6,620.0 505.8,620.0 506.0,620.0 506.1,620.0 506.3,620.0 506.4,620.0 506.6,620.0 506.8,620.0 506.9,620.0 507.1,620.0 507.2,620.0 507.4,620.0 507.5,620.0 507.7,620.0 507.9,620.0 508.0,620.0 508.2,620.0 508.3,620.0 508.5,620.0 508.7,620.0 508.8,620.0 509.0,620.0 509.1,620.0 509.3,620.0 509.5,620.0 509.6,620.0 509.8,620.0 509.9,620.0 510.1,620.0 510.2,620.0 510.4,620.0 510.6,620.0 510.7,620.0 510.9,620.0 511.0,620.0 511.2,620.0 511.4,620.0 511.5,620.0 511.7,620.0 511.8,620.0 512.0,620.0 512.1,620.0 512.3,620.0 512.5,620.0 512.6,620.0 512.8,620.0 512.9,620.0 513.1,620.0 513.3,620.0 513.4,620.0 513.6,620.0 513.7,620.0 513.9,620.0 514.1,620.0 514.2,620.0 514.4,620.0 514.5,620.0 514.7,620.0 514.8,620.0 515.0,620.0 515.2,620.0 515.3,620.0 515.5,620.0 515.6,620.0 515.8,620.0 516.0,620.0 516.1,620.0 516.3,620.0 516.4,620.0 516.6,620.0 516.7,620.0 516.9,620.0 517.1,620.0 517.2,620.0 517.4,620.0 517.5,620.0 517.7,620.0 517.9,620.0 518.0,620.0 518.2,620.0 518.3,620.0 518.5,620.0 518.6,620.0 518.8,620.0 519.0,620.0 519.1,620.0 519.3,620.0 519.4,620.0 519.6,620.0 519.8,620.0 519.9,620.0 520.1,620.0 520.2,620.0 520.4,620.0 520.6,620.0 520.7,620.0 520.9,620.0 521.0,620.0 521.2,620.0 521.3,620.0 521.5,620.0 521.7,620.0 521.8,620.0 522.0,620.0 522.1,620.0 522.3,620.0 522.5,620.0 522.6,620.0 522.8,620.0 522.9,620.0 523.1,620.0 523.2,620.0 523.4,620.0 523.6,620.0 523.7,620.0 523.9,620.0 524.0,620.0 524.2,620.0 524.4,620.0 524.5,620.0 524.7,620.0 524.8,620.0 525.0,620.0 525.2,620.0 525.3,620.0 525.5,620.0 525.6,620.0 525.8,620.0 525.9,620.0 526.1,620.0 526.3,620.0 526.4,620.0 526.6,620.0 526.7,620.0 526.9,620.0 527.1,620.0 527.2,620.0 527.4,620.0 527.5,620.0 527.7,620.0 527.8,620.0 528.0,620.0 528.2,620.0 528.3,620.0 528.5,620.0 528.6,620.0 528.8,620.0 529.0,620.0 529.1,620.0 529.3,620.0 529.4,620.0 529.6,620.0 529.7,620.0 529.9,620.0 530.1,620.0 530.2,620.0 530.4,620.0 530.5,620.0 530.7,620.0 530.9,620.0 531.0,620.0 531.2,620.0 531.3,620.0 531.5,620.0 531.7,620.0 531.8,620.0 532.0,620.0 532.1,620.0 532.3,620.0 532.4,620.0 532.6,620.0 532.8,620.0 532.9,620.0 533.1,620.0 533.2,620.0 533.4,620.0 533.6,620.0 533.7,620.0 533.9,620.0 534.0,620.0 534.2,620.0 534.3,620.0 534.5,620.0 534.7,620.0 534.8,620.0 535.0,620.0 535.1,620.0 535.3,620.0 535.5,620.0 535.6,620.0 535.8,620.0 535.9,620.0 536.1,620.0 536.3,620.0 536.4,620.0 536.6,620.0 536.7,620.0 536.9,620.0 537.0,620.0 537.2,620.0 537.4,620.0 537.5,620.0 537.7,620.0 537.8,620.0 538.0,620.0 538.2,620.0 538.3,620.0 538.5,620.0 538.6,620.0 538.8,620.0 538.9,620.0 539.1,620.0 539.3,620.0 539.4,620.0 539.6,620.0 539.7,620.0 539.9,620.0 540.1,620.0 540.2,620.0 540.4,620.0 540.5,620.0 540.7,620.0 540.8,620.0 541.0,620.0 541.2,620.0 541.3,620.0 541.5,620.0 541.6,620.0 541.8,620.0 542.0,620.0 542.1,620.0 542.3,620.0 542.4,620.0 542.6,620.0 542.8,620.0 542.9,620.0 543.1,620.0 543.2,620.0 543.4,620.0 543.5,620.0 543.7,620.0 543.9,620.0 544.0,620.0 544.2,620.0 544.3,620.0 544.5,620.0 544.7,620.0 544.8,620.0 545.0,620.0 545.1,620.0 545.3,620.0 545.4,620.0 545.6,620.0 545.8,620.0 545.9,620.0 546.1,620.0 546.2,620.0 546.4,620.0 546.6,620.0 546.7,620.0 546.9,620.0 547.0,620.0 547.2,620.0 547.4,620.0 547.5,620.0 547.7,620.0 547.8,620.0 548.0,620.0 548.1,620.0 548.3,620.0 548.5,620.0 548.6,620.0 548.8,620.0 548.9,620.0 549.1,620.0 549.3,620.0 549.4,620.0 549.6,620.0 549.7,620.0 549.9,620.0 550.0,620.0 550.2,620.0 550.4,620.0 550.5,620.0 550.7,620.0 550.8,620.0 551.0,620.0 551.2,620.0 551.3,620.0 551.5,620.0 551.6,620.0 551.8,620.0 552.0,620.0 552.1,620.0 552.3,620.0 552.4,620.0 552.6,620.0 552.7,620.0 552.9,620.0 553.1,620.0 553.2,620.0 553.4,620.0 553.5,620.0 553.7,620.0 553.9,620.0 554.0,620.0 554.2,620.0 554.3,620.0 554.5,620.0 554.6,620.0 554.8,620.0 555.0,620.0 555.1,620.0 555.3,620.0 555.4,620.0 555.6,620.0 555.8,620.0 555.9,620.0 556.1,620.0 556.2,620.0 556.4,620.0 556.5,620.0 556.7,620.0 556.9,620.0 557.0,620.0 557.2,620.0 557.3,620.0 557.5,620.0 557.7,620.0 557.8,620.0 558.0,620.0 558.1,620.0 558.3,620.0 558.5,620.0 558.6,620.0 558.8,620.0 558.9,620.0 559.1,620.0 559.2,620.0 559.4,620.0 559.6,620.0 559.7,620.0 559.9,620.0 560.0,620.0 560.2,620.0 560.4,620.0 560.5,620.0 560.7,620.0 560.8,620.0 561.0,620.0 561.1,620.0 561.3,620.0 561.5,620.0 561.6,620.0 561.8,620.0 561.9,620.0 562.1,620.0 562.3,620.0 562.4,620.0 562.6,620.0 562.7,620.0 562.9,620.0 563.1,620.0 563.2,620.0 563.4,620.0 563.5,620.0 563.7,620.0 563.8,620.0 564.0,620.0 564.2,620.0 564.3,620.0 564.5,620.0 564.6,620.0 564.8,620.0 565.0,620.0 565.1,620.0 565.3,620.0 565.4,620.0 565.6,620.0 565.7,620.0 565.9,620.0 566.1,620.0 566.2,620.0 566.4,620.0 566.5,620.0 566.7,620.0 566.9,620.0 567.0,620.0 567.2,620.0 567.3,620.0 567.5,620.0 567.6,620.0 567.8,620.0 568.0,620.0 568.1,620.0 568.3,620.0 568.4,620.0 568.6,620.0 568.8,620.0 568.9,620.0 569.1,620.0 569.2,620.0 569.4,620.0 569.6,620.0 569.7,620.0 569.9,618.6 570.0,617.2 570.2,615.8 570.3,614.4 570.5,613.0 570.7,611.5 570.8,610.1 571.0,608.7 571.1,607.3 571.3,605.9 571.5,604.5 571.6,603.1 571.8,601.7 571.9,600.3 572.1,598.9 572.2,597.5 572.4,596.1 572.6,594.6 572.7,593.2 572.9,591.8 573.0,590.4 573.2,589.0 573.4,587.6 573.5,586.2 573.7,584.8 573.8,583.4 574.0,582.0 574.2,580.6 574.3,579.2 574.5,577.7 574.6,576.3 574.8,574.9 574.9,573.5 575.1,572.1 575.3,570.7 575.4,569.3 575.6,567.9 575.7,566.5 575.9,565.1 576.1,563.7 576.2,562.3 576.4,560.8 576.5,559.4 576.7,558.0 576.8,556.6 577.0,555.2 577.2,553.8 577.3,552.4 577.5,551.0 577.6,549.6 577.8,548.2 578.0,546.8 578.1,545.4 578.3,543.9 578.4,542.5 578.6,541.1 578.8,539.7 578.9,538.3 579.1,536.9 579.2,535.5 579.4,534.1 579.5,532.7 579.7,531.3 579.9,529.9 580.0,528.5 580.2,527.0 580.3,525.6 580.5,524.2 580.7,522.8 580.8,521.4 581.0,520.0 581.1,518.6 581.3,517.2 581.4,515.8 581.6,514.4 581.8,513.0 581.9,511.5 582.1,510.1 582.2,508.7 582.4,507.3 582.6,505.9 582.7,504.5 582.9,503.1 583.0,501.7 583.2,500.3 583.3,498.9 583.5,497.5 583.7,496.1 583.8,494.6 584.0,493.2 584.1,491.8 584.3,490.4 584.5,489.0 584.6,487.6 584.8,486.2 584.9,484.8 585.1,483.4 585.3,482.0 585.4,480.6 585.6,479.2 585.7,477.7 585.9,476.3 586.0,474.9 586.2,473.5 586.4,472.1 586.5,470.7 586.7,469.3 586.8,467.9 587.0,466.5 587.2,465.1 587.3,463.7 587.5,462.3 587.6,460.8 587.8,459.4 587.9,458.0 588.1,456.6 588.3,455.2 588.4,453.8 588.6,452.4 588.7,451.0 588.9,449.6 589.1,448.2 589.2,445.4 589.4,442.5 589.5,439.7 589.7,436.9 589.9,434.1 590.0,431.3 590.2,428.5 590.3,425.6 590.5,422.8 590.6,420.0 590.8,417.2 591.0,414.4 591.1,411.5 591.3,408.7 591.4,405.9 591.6,403.1 591.8,400.3 591.9,397.5 592.1,394.6 592.2,391.8 592.4,389.0 592.5,386.2 592.7,383.4 592.9,380.6 593.0,377.7 593.2,374.9 593.3,372.1 593.5,369.3 593.7,366.5 593.8,363.7 594.0,360.8 594.1,358.0 594.3,355.2 594.4,352.4 594.6,349.6 594.8,346.8 594.9,343.9 595.1,341.1 595.2,338.3 595.4,334.1 595.6,329.9 595.7,325.6 595.9,321.4 596.0,317.2 596.2,313.0 596.4,308.7 596.5,304.5 596.7,300.3 596.8,296.1 597.0,291.8 597.1,286.2 597.3,280.6 597.5,274.9 597.6,269.3 597.8,263.7 597.9,258.0 598.1,251.0 598.3,243.9 598.4,236.9 598.6,229.9 598.7,221.4 598.9,213.0 599.0,204.5 599.2,196.1 599.4,186.2 599.5,173.5 599.7,159.4 599.8,141.1 600.0,120.0" fill="none" stroke="#c94343" stroke-width="5"/>
<text x="100" y="665" font-family="Inter, Arial, sans-serif" font-size="14" fill="#5f5750">share of exhibitor companies, sorted by matched speakers</text>
<text x="118" y="148" font-family="Inter, Arial, sans-serif" font-size="14" fill="#5f5750">share of matched speakers</text>
<text x="400" y="550" font-family="Inter, Arial, sans-serif" font-size="46" font-weight="900" fill="#c94343">Gini 0.96</text>
<text x="400" y="586" font-family="Inter, Arial, sans-serif" font-size="15" fill="#5f5750">Includes zero-speaker exhibitors.</text>
</svg>