<svg xmlns="http://www.w3.org/2000/svg" width="1180" height="756" viewBox="0 0 1180 756" role="img" aria-labelledby="title desc">
<title>Who owns the most speaker slots?</title>
<desc>Top speaker organizations by speaker count</desc>
<rect width="100%" height="100%" fill="#fbfaf7"/>
<text x="40" y="48" font-family="Inter, Arial, sans-serif" font-size="28" font-weight="800" fill="#1b1b1b">Who owns the most speaker slots?</text>
<text x="40" y="82" font-family="Inter, Arial, sans-serif" font-size="16" fill="#4f4a45">Top speaker organizations by speaker count</text>
<text x="40" y="147" font-family="Inter, Arial, sans-serif" font-size="15" fill="#26221f">L&#x27;Oréal</text>
<rect x="330" y="130" width="722.2" height="24" rx="3" fill="#2454A6" opacity="0.92"/>
<text x="1060.2" y="149" font-family="Inter, Arial, sans-serif" font-size="14" fill="#26221f">14.0</text>
<text x="40" y="195" font-family="Inter, Arial, sans-serif" font-size="15" fill="#26221f">PwC</text>
<rect x="330" y="178" width="619.0" height="24" rx="3" fill="#2454A6" opacity="0.92"/>
<text x="957.0" y="197" font-family="Inter, Arial, sans-serif" font-size="14" fill="#26221f">12.0</text>
<text x="40" y="243" font-family="Inter, Arial, sans-serif" font-size="15" fill="#26221f">OVHcloud</text>
<rect x="330" y="226" width="309.5" height="24" rx="3" fill="#2454A6" opacity="0.92"/>
<text x="647.5" y="245" font-family="Inter, Arial, sans-serif" font-size="14" fill="#26221f">6.0</text>
<text x="40" y="291" font-family="Inter, Arial, sans-serif" font-size="15" fill="#26221f">Le Jamel Comedy Club</text>
<rect x="330" y="274" width="309.5" height="24" rx="3" fill="#2454A6" opacity="0.92"/>
<text x="647.5" y="293" font-family="Inter, Arial, sans-serif" font-size="14" fill="#26221f">6.0</text>
<text x="40" y="339" font-family="Inter, Arial, sans-serif" font-size="15" fill="#26221f">EssilorLuxottica</text>
<rect x="330" y="322" width="309.5" height="24" rx="3" fill="#2454A6" opacity="0.92"/>
<text x="647.5" y="341" font-family="Inter, Arial, sans-serif" font-size="14" fill="#26221f">6.0</text>
<text x="40" y="387" font-family="Inter, Arial, sans-serif" font-size="15" fill="#26221f">NVIDIA</text>
<rect x="330" y="370" width="309.5" height="24" rx="3" fill="#2454A6" opacity="0.92"/>
<text x="647.5" y="389" font-family="Inter, Arial, sans-serif" font-size="14" fill="#26221f">6.0</text>
<text x="40" y="435" font-family="Inter, Arial, sans-serif" font-size="15" fill="#26221f">McKinsey &amp; Company</text>
<rect x="330" y="418" width="309.5" height="24" rx="3" fill="#2454A6" opacity="0.92"/>
<text x="647.5" y="437" font-family="Inter, Arial, sans-serif" font-size="14" fill="#26221f">6.0</text>
<text x="40" y="483" font-family="Inter, Arial, sans-serif" font-size="15" fill="#26221f">EY</text>
<rect x="330" y="466" width="309.5" height="24" rx="3" fill="#2454A6" opacity="0.92"/>
<text x="647.5" y="485" font-family="Inter, Arial, sans-serif" font-size="14" fill="#26221f">6.0</text>
<text x="40" y="531" font-family="Inter, Arial, sans-serif" font-size="15" fill="#26221f">Roland Berger</text>
<rect x="330" y="514" width="309.5" height="24" rx="3" fill="#2454A6" opacity="0.92"/>
<text x="647.5" y="533" font-family="Inter, Arial, sans-serif" font-size="14" fill="#26221f">6.0</text>
<text x="40" y="579" font-family="Inter, Arial, sans-serif" font-size="15" fill="#26221f">Capgemini</text>
<rect x="330" y="562" width="309.5" height="24" rx="3" fill="#2454A6" opacity="0.92"/>
<text x="647.5" y="581" font-family="Inter, Arial, sans-serif" font-size="14" fill="#26221f">6.0</text>
<text x="40" y="627" font-family="Inter, Arial, sans-serif" font-size="15" fill="#26221f">AWS</text>
<rect x="330" y="610" width="309.5" height="24" rx="3" fill="#2454A6" opacity="0.92"/>
<text x="647.5" y="629" font-family="Inter, Arial, sans-serif" font-size="14" fill="#26221f">6.0</text>
<text x="40" y="675" font-family="Inter, Arial, sans-serif" font-size="15" fill="#26221f">ENGIE</text>
<rect x="330" y="658" width="257.9" height="24" rx="3" fill="#2454A6" opacity="0.92"/>
<text x="595.9" y="677" font-family="Inter, Arial, sans-serif" font-size="14" fill="#26221f">5.0</text>
</svg>