<svg xmlns="http://www.w3.org/2000/svg" width="1180" height="516" viewBox="0 0 1180 516" role="img" aria-labelledby="title desc">
<title>Funding maturity buys microphone odds</title>
<desc>Matched speakers per 100 companies among explicit fundraising labels</desc>
<rect width="100%" height="100%" fill="#fbfaf7"/>
<text x="40" y="48" font-family="Inter, Arial, sans-serif" font-size="28" font-weight="800" fill="#1b1b1b">Funding maturity buys microphone odds</text>
<text x="40" y="82" font-family="Inter, Arial, sans-serif" font-size="16" fill="#4f4a45">Matched speakers per 100 companies among explicit fundraising labels</text>
<text x="40" y="147" font-family="Inter, Arial, sans-serif" font-size="15" fill="#26221f">Bootstrapped - 0</text>
<rect x="330" y="130" width="90.8" height="24" rx="3" fill="#C94343" opacity="0.92"/>
<text x="428.8" y="149" font-family="Inter, Arial, sans-serif" font-size="14" fill="#26221f">2.1</text>
<text x="40" y="195" font-family="Inter, Arial, sans-serif" font-size="15" fill="#26221f">Not yet - 0</text>
<rect x="330" y="178" width="90.8" height="24" rx="3" fill="#C94343" opacity="0.92"/>
<text x="428.8" y="197" font-family="Inter, Arial, sans-serif" font-size="14" fill="#26221f">2.1</text>
<text x="40" y="243" font-family="Inter, Arial, sans-serif" font-size="15" fill="#26221f">Pre-Seed - &lt;$1M</text>
<rect x="330" y="226" width="99.5" height="24" rx="3" fill="#C94343" opacity="0.92"/>
<text x="437.5" y="245" font-family="Inter, Arial, sans-serif" font-size="14" fill="#26221f">2.3</text>
<text x="40" y="291" font-family="Inter, Arial, sans-serif" font-size="15" fill="#26221f">Seed - $1M - $5M</text>
<rect x="330" y="274" width="134.1" height="24" rx="3" fill="#C94343" opacity="0.92"/>
<text x="472.1" y="293" font-family="Inter, Arial, sans-serif" font-size="14" fill="#26221f">3.1</text>
<text x="40" y="339" font-family="Inter, Arial, sans-serif" font-size="15" fill="#26221f">Series A - $5M - $15M</text>
<rect x="330" y="322" width="186.0" height="24" rx="3" fill="#C94343" opacity="0.92"/>
<text x="524.0" y="341" font-family="Inter, Arial, sans-serif" font-size="14" fill="#26221f">4.3</text>
<text x="40" y="387" font-family="Inter, Arial, sans-serif" font-size="15" fill="#26221f">Series B - $15M - $50M</text>
<rect x="330" y="370" width="358.9" height="24" rx="3" fill="#C94343" opacity="0.92"/>
<text x="696.9" y="389" font-family="Inter, Arial, sans-serif" font-size="14" fill="#26221f">8.3</text>
<text x="40" y="435" font-family="Inter, Arial, sans-serif" font-size="15" fill="#26221f">Series C - $50M - $200M</text>
<rect x="330" y="418" width="722.2" height="24" rx="3" fill="#C94343" opacity="0.92"/>
<text x="1060.2" y="437" font-family="Inter, Arial, sans-serif" font-size="14" fill="#26221f">16.7</text>
</svg>