<svg xmlns="http://www.w3.org/2000/svg" width="1180" height="760" viewBox="0 0 1180 760" role="img">
<rect width="100%" height="100%" fill="#fbfaf7"/>
<text x="40" y="52" font-family="Inter, Arial, sans-serif" font-size="28" font-weight="900" fill="#171411">Which topics get stage share?</text>
<text x="40" y="84" font-family="Inter, Arial, sans-serif" font-size="15" fill="#5f5750">Red dots under-index on stage; blue dots over-index.</text>
<line x1="120" y1="660" x2="1100" y2="660" stroke="#7f766e"/>
<line x1="120" y1="120" x2="120" y2="660" stroke="#7f766e"/>
<text x="940" y="708" font-family="Inter, Arial, sans-serif" font-size="14" fill="#5f5750">exhibitor share %</text>
<text x="30" y="140" font-family="Inter, Arial, sans-serif" font-size="14" fill="#5f5750">speaker share %</text>
<circle cx="605.8" cy="515.2" r="20.2" fill="#c94343" opacity="0.72"/>
<text x="630.1" y="519.2" font-family="Inter, Arial, sans-serif" font-size="12" fill="#171411">Growth &amp; Startup &amp; Investment</text>
<circle cx="458.4" cy="597.8" r="17.9" fill="#c94343" opacity="0.72"/>
<text x="480.3" y="601.8" font-family="Inter, Arial, sans-serif" font-size="12" fill="#171411">Industry &amp; Supply Chain</text>
<circle cx="473.5" cy="567.7" r="18.1" fill="#c94343" opacity="0.72"/>
<text x="495.7" y="571.7" font-family="Inter, Arial, sans-serif" font-size="12" fill="#171411">Energy &amp; Greentech</text>
<circle cx="322.3" cy="654.6" r="15.2" fill="#c94343" opacity="0.72"/>
<text x="341.5" y="658.6" font-family="Inter, Arial, sans-serif" font-size="12" fill="#171411">Retail &amp; E-commerce</text>
<circle cx="407.3" cy="589.2" r="17.0" fill="#c94343" opacity="0.72"/>
<text x="428.3" y="593.2" font-family="Inter, Arial, sans-serif" font-size="12" fill="#171411">Consulting &amp; B2B services</text>
<circle cx="592.6" cy="477.6" r="20.0" fill="#c94343" opacity="0.72"/>
<text x="616.7" y="481.6" font-family="Inter, Arial, sans-serif" font-size="12" fill="#171411">DeepTech</text>
<circle cx="341.2" cy="616.0" r="15.6" fill="#c94343" opacity="0.72"/>
<text x="360.8" y="620.0" font-family="Inter, Arial, sans-serif" font-size="12" fill="#171411">Mobility &amp; Smart Cities</text>
<circle cx="422.5" cy="553.8" r="17.2" fill="#c94343" opacity="0.72"/>
<text x="443.7" y="557.8" font-family="Inter, Arial, sans-serif" font-size="12" fill="#171411">Healthcare &amp; Wellness</text>
<circle cx="331.7" cy="599.9" r="15.4" fill="#c94343" opacity="0.72"/>
<text x="351.1" y="603.9" font-family="Inter, Arial, sans-serif" font-size="12" fill="#171411">Fintech &amp; Banking &amp; Compliance</text>
<circle cx="246.7" cy="632.1" r="13.3" fill="#c94343" opacity="0.72"/>
<text x="263.9" y="636.1" font-family="Inter, Arial, sans-serif" font-size="12" fill="#171411">Luxury &amp; Fashion &amp; Cosmetics</text>
<circle cx="225.9" cy="569.9" r="12.6" fill="#2454a6" opacity="0.72"/>
<text x="242.5" y="573.9" font-family="Inter, Arial, sans-serif" font-size="12" fill="#171411">Media &amp; Entertainment &amp; Creators Economy</text>
<circle cx="225.9" cy="628.9" r="12.7" fill="#c94343" opacity="0.72"/>
<circle cx="290.1" cy="590.3" r="14.4" fill="#c94343" opacity="0.72"/>
<circle cx="352.5" cy="548.4" r="15.8" fill="#c94343" opacity="0.72"/>
<circle cx="212.6" cy="628.9" r="12.2" fill="#c94343" opacity="0.72"/>
<circle cx="303.4" cy="572.0" r="14.7" fill="#c94343" opacity="0.72"/>
<circle cx="1027.4" cy="160.0" r="24.0" fill="#c94343" opacity="0.72"/>
<text x="1055.4" y="164.0" font-family="Inter, Arial, sans-serif" font-size="12" fill="#171411">Artificial Intelligence &amp; Robotics</text>
<circle cx="254.2" cy="596.7" r="13.5" fill="#c94343" opacity="0.72"/>
<circle cx="163.5" cy="626.7" r="10.2" fill="#2454a6" opacity="0.72"/>
<circle cx="207.0" cy="604.2" r="12.0" fill="#2454a6" opacity="0.72"/>
<circle cx="307.2" cy="551.6" r="14.8" fill="#2454a6" opacity="0.72"/>
</svg>